<?xml version="1.0" standalone="no"?>
<!DOCTYPE svg PUBLIC "-//W3C//DTD SVG 20010904//EN"
 "http://www.w3.org/TR/2001/REC-SVG-20010904/DTD/svg10.dtd">
<svg version="1.0" xmlns="http://www.w3.org/2000/svg"
 width="512.000000pt" height="512.000000pt" viewBox="0 0 512.000000 512.000000"
 preserveAspectRatio="xMidYMid meet">
<metadata>
Created by potrace 1.14, written by Peter Selinger 2001-2017
</metadata>
<g transform="translate(0.000000,512.000000) scale(0.100000,-0.100000)"
fill="#000000" stroke="none">
<path d="M3730 5100 c-11 -11 -21 -23 -21 -27 -1 -5 -2 -240 -3 -523 l-1 -515
-120 -66 c-484 -267 -489 -269 -499 -246 -42 99 -125 249 -158 283 -76 79
-178 89 -297 29 -121 -61 -165 -120 -165 -226 -1 -63 3 -74 63 -193 38 -76 76
-137 96 -155 l32 -28 -26 -49 c-37 -67 -85 -236 -77 -268 12 -47 96 -68 126
-31 5 7 23 54 38 106 36 117 53 152 94 182 28 20 818 452 945 516 l42 21 -5
-24 c-13 -73 -58 -155 -109 -198 -11 -10 -65 -45 -120 -78 -55 -34 -176 -108
-270 -166 -93 -58 -176 -108 -184 -111 -60 -27 -188 -118 -197 -140 -22 -50
11 -97 73 -105 22 -3 21 -7 -40 -188 l-62 -184 -165 -68 c-90 -37 -166 -66
-168 -64 -2 2 13 63 33 135 22 82 33 140 29 156 -13 54 -99 68 -129 21 -17
-26 -123 -402 -130 -459 -2 -23 -7 -91 -10 -152 -2 -60 -7 -153 -10 -205 -3
-52 -7 -131 -10 -175 -3 -65 -10 -93 -36 -145 -17 -36 -51 -105 -74 -155 -168
-356 -218 -461 -226 -470 -5 -5 -76 -10 -157 -10 -143 -2 -150 -3 -201 -30
-111 -61 -141 -128 -141 -317 l0 -129 -22 13 c-17 9 -116 12 -388 12 -350 0
-367 -1 -410 -21 -59 -28 -108 -76 -133 -132 -18 -40 -21 -67 -21 -208 l-1
-163 -103 0 c-96 0 -105 -2 -127 -25 -32 -31 -32 -69 0 -100 l24 -25 2239 0
2238 0 22 20 c30 28 30 82 0 110 -19 18 -35 20 -132 20 l-111 0 0 977 c0 753
-3 988 -13 1026 -15 62 -60 119 -120 155 l-47 27 -265 3 -265 3 0 657 0 657
27 41 c39 61 61 147 61 239 0 97 -18 146 -60 164 -28 11 -29 15 -29 71 1 32 4
62 8 66 4 4 216 7 470 8 431 1 465 2 490 19 15 10 32 34 38 53 18 52 -1 94
-68 151 -31 26 -73 62 -92 80 -19 17 -45 40 -57 51 -13 11 -23 23 -22 28 0 5
24 29 52 53 188 160 202 178 192 235 -7 34 -46 85 -68 88 -7 0 -221 2 -477 3
l-464 1 -2 33 c-3 66 -81 104 -124 61z m903 -255 c-3 -5 -45 -45 -94 -88 -134
-118 -132 -158 16 -282 46 -38 84 -73 84 -77 1 -3 -176 -5 -391 -5 l-393 2 -1
225 c0 124 0 227 2 230 1 3 178 5 392 5 263 0 388 -3 385 -10z m-1819 -938
c25 -17 113 -183 121 -228 8 -43 -14 -73 -75 -104 -53 -27 -90 -31 -121 -15
-10 6 -44 61 -75 121 -72 145 -68 169 34 221 55 28 80 29 116 5z m891 -982 c0
-578 0 -585 -20 -586 -92 -3 -179 -61 -221 -146 -17 -34 -19 -68 -22 -318 -2
-154 -5 -281 -7 -283 -2 -2 -22 2 -44 9 -30 9 -40 17 -37 28 3 9 7 43 11 76 3
33 7 71 10 85 2 14 7 48 10 75 3 28 8 66 10 85 3 19 9 63 13 96 19 141 1 182
-163 379 -65 77 -134 160 -154 184 -20 24 -41 49 -47 56 -9 8 10 79 77 282
l90 271 117 71 c64 39 171 104 237 145 66 41 125 75 130 75 7 1 10 -200 10
-584z m-860 -417 c-3 -13 -9 -45 -15 -73 -11 -59 -18 -98 -26 -145 -6 -36 -26
-150 -65 -353 l-22 -117 -204 -273 c-112 -149 -213 -283 -223 -297 -11 -14
-36 -47 -57 -75 -33 -44 -73 -68 -73 -45 0 5 30 71 66 147 213 444 230 482
238 519 8 34 9 58 32 479 3 66 7 121 8 122 5 5 323 132 333 133 7 0 10 -9 8
-22z m218 -101 c83 -96 170 -202 184 -224 16 -25 19 -68 9 -138 -8 -61 -13
-103 -22 -175 -3 -30 -8 -62 -9 -70 -3 -15 -16 -129 -20 -165 -1 -14 -10 -21
-28 -23 -15 -2 -27 0 -28 5 0 4 -2 19 -4 33 -4 25 -20 199 -31 320 -8 93 -29
144 -74 180 -21 16 -42 30 -47 30 -5 0 -19 9 -30 19 -20 19 -20 23 -8 83 7 35
18 96 25 137 11 65 14 72 25 57 7 -9 33 -40 58 -69z m1295 -231 c58 -30 56 17
57 -1029 0 -529 -1 -970 -3 -980 -4 -16 -32 -17 -413 -17 l-409 0 0 230 c0
247 -4 273 -50 288 -32 11 -84 -7 -94 -33 -3 -9 -6 -122 -6 -251 l0 -234 -413
0 -412 0 0 618 c1 672 -1 647 58 675 40 20 657 21 704 2 57 -24 63 -50 63
-285 0 -211 0 -211 25 -235 31 -32 69 -32 100 0 l25 24 0 587 0 586 34 34 34
34 336 0 c271 0 342 -3 364 -14z m-1417 -139 c12 -9 19 -37 23 -92 4 -44 9
-93 11 -110 8 -61 17 -151 19 -187 l2 -38 -124 0 -124 0 22 28 c79 103 88 124
117 269 15 79 30 143 33 143 3 0 12 -6 21 -13z m-476 -875 l0 -59 -35 11 c-19
5 -37 11 -39 12 -4 4 61 94 68 94 3 0 6 -26 6 -58z m-51 -205 c49 -33 51 -47
51 -438 l0 -364 -413 -3 -412 -2 0 373 c0 333 2 375 17 397 18 27 38 42 66 50
10 3 163 5 341 5 295 0 324 -2 350 -18z m-973 -450 c42 -28 49 -57 49 -212 l0
-145 -409 0 c-318 0 -410 3 -413 13 -2 6 -4 74 -3 150 1 153 12 182 73 202 18
7 157 10 354 10 288 -1 326 -3 349 -18z"/>
</g>
</svg>
